# xmcd CD database file
#
# Track frame offsets:
#	150
#	15585
#	32576
#	47583
#	61686
#	81058
#	103134
#	121127
#	141187
#	159095
#	174947
#	189390
#	207570
#	242158
#
# Disc length: 4440 seconds
#
# Revision: 2
# Processed by: cddbd v1.5.1PL2 Copyright (c) Steve Scherf et al.
# Submitted via: CDex 1.51
#
DISCID=ab11560e
DTITLE=SheSays - She Says
DYEAR=2006
DGENRE=Rock
TTITLE0=She Says
TTITLE1=Flowers
TTITLE2=Sex
TTITLE3=Mayday
TTITLE4=Mountainside
TTITLE5=Moonlight
TTITLE6=Fallen Angel
TTITLE7=Love U
TTITLE8=Bees and Stones
TTITLE9=Venus
TTITLE10=Lady In The Sky
TTITLE11=Rosegardens
TTITLE12=Deeply
TTITLE13=Data Track
EXTD=YEAR: 2006
EXTT0=
EXTT1=
EXTT2=
EXTT3=
EXTT4=
EXTT5=
EXTT6=
EXTT7=
EXTT8=
EXTT9=
EXTT10=
EXTT11=
EXTT12=
EXTT13=
PLAYORDER=
